<svg width="14" height="15" viewBox="0 0 14 15" fill="none" xmlns="http://www.w3.org/2000/svg">
<path fill-rule="evenodd" clip-rule="evenodd" d="M9.5 12.5C9.24112 12.5 9.03125 12.2901 9.03125 12.0312L9.03125 4.16244L7.81225 5.47521C7.63609 5.66492 7.3395 5.6759 7.14979 5.49975C6.96008 5.32359 6.9491 5.027 7.12525 4.83729L9.1565 2.64979C9.2452 2.55427 9.36965 2.5 9.5 2.5C9.63034 2.5 9.7548 2.55427 9.8435 2.64979L11.8747 4.83729C12.0509 5.027 12.0399 5.32359 11.8502 5.49975C11.6605 5.6759 11.3639 5.66492 11.1878 5.47521L9.96875 4.16244L9.96875 12.0312C9.96875 12.2901 9.75888 12.5 9.5 12.5Z" fill="#262F2F"/>
<path d="M4.79785 12.1167V12.5H2.39062V12.1167H4.79785ZM4.71973 9.28711L2.50293 12.5H2.2124V12.1484L4.42676 8.94531H4.71973V9.28711ZM4.51953 8.94531V9.33105H2.24414V8.94531H4.51953Z" fill="#262F2F"/>
<path d="M3.7627 3.55322L2.7959 6.5H2.01709L3.33789 2.94531H3.8335L3.7627 3.55322ZM4.56592 6.5L3.59668 3.55322L3.51855 2.94531H4.01904L5.34717 6.5H4.56592ZM4.52197 5.17676V5.75049H2.64453V5.17676H4.52197Z" fill="#262F2F"/>
</svg>
