<svg width="9" height="10" viewBox="0 0 9 10" fill="none" xmlns="http://www.w3.org/2000/svg">
<path id="Vector" d="M3.36667 4.52501C3.3875 4.38751 3.43333 4.26668 3.49167 4.16251C3.55 4.05834 3.63333 3.97084 3.7375 3.90418C3.8375 3.84168 3.9625 3.81251 4.11667 3.80834C4.2125 3.81251 4.3 3.82918 4.37917 3.86251C4.4625 3.90001 4.5375 3.95001 4.59583 4.01251C4.65417 4.07501 4.7 4.15001 4.7375 4.23334C4.775 4.31668 4.79167 4.40834 4.79583 4.50001H5.54167C5.53333 4.30418 5.49583 4.12501 5.425 3.96251C5.35417 3.80001 5.25833 3.65834 5.13333 3.54168C5.00833 3.42501 4.85833 3.33334 4.68333 3.26668C4.50833 3.20001 4.31667 3.17084 4.10417 3.17084C3.83333 3.17084 3.59583 3.21668 3.39583 3.31251C3.19583 3.40834 3.02917 3.53334 2.89583 3.69584C2.7625 3.85834 2.6625 4.04584 2.6 4.26251C2.5375 4.47918 2.5 4.70418 2.5 4.94584V5.05834C2.5 5.30001 2.53333 5.52501 2.59583 5.74168C2.65833 5.95834 2.75833 6.14584 2.89167 6.30418C3.025 6.46251 3.19167 6.59168 3.39167 6.68334C3.59167 6.77501 3.82917 6.82501 4.1 6.82501C4.29583 6.82501 4.47917 6.79168 4.65 6.72918C4.82083 6.66668 4.97083 6.57918 5.1 6.46668C5.22917 6.35418 5.33333 6.22501 5.40833 6.07501C5.48333 5.92501 5.52917 5.76668 5.53333 5.59584H4.7875C4.78333 5.68334 4.7625 5.76251 4.725 5.83751C4.6875 5.91251 4.6375 5.97501 4.575 6.02918C4.5125 6.08334 4.44167 6.12501 4.35833 6.15418C4.27917 6.18334 4.19583 6.19168 4.10833 6.19584C3.95833 6.19168 3.83333 6.16251 3.7375 6.10001C3.63333 6.03334 3.55 5.94584 3.49167 5.84168C3.43333 5.73751 3.3875 5.61251 3.36667 5.47501C3.34583 5.33751 3.33333 5.19584 3.33333 5.05834V4.94584C3.33333 4.80001 3.34583 4.66251 3.36667 4.52501ZM4.16667 0.833344C1.86667 0.833344 0 2.70001 0 5.00001C0 7.30001 1.86667 9.16668 4.16667 9.16668C6.46667 9.16668 8.33333 7.30001 8.33333 5.00001C8.33333 2.70001 6.46667 0.833344 4.16667 0.833344ZM4.16667 8.33334C2.32917 8.33334 0.833333 6.83751 0.833333 5.00001C0.833333 3.16251 2.32917 1.66668 4.16667 1.66668C6.00417 1.66668 7.5 3.16251 7.5 5.00001C7.5 6.83751 6.00417 8.33334 4.16667 8.33334Z" fill="#262F2F"/>
</svg>
