<svg width="24" height="24" viewBox="0 0 24 24" fill="none" xmlns="http://www.w3.org/2000/svg">
<g id="Hamburger menu">
<rect id="background" width="24" height="24" fill="#F8F8F8"/>
<path id="Vector" fill-rule="evenodd" clip-rule="evenodd" d="M3.6001 7.19998C3.6001 7.04085 3.65102 6.88823 3.74166 6.77571C3.83231 6.66319 3.95524 6.59998 4.08343 6.59998H20.5168C20.645 6.59998 20.7679 6.66319 20.8585 6.77571C20.9492 6.88823 21.0001 7.04085 21.0001 7.19998C21.0001 7.35911 20.9492 7.51172 20.8585 7.62424C20.7679 7.73676 20.645 7.79998 20.5168 7.79998H4.08343C3.95524 7.79998 3.83231 7.73676 3.74166 7.62424C3.65102 7.51172 3.6001 7.35911 3.6001 7.19998Z" fill="#262F2F"/>
<path id="Vector_2" fill-rule="evenodd" clip-rule="evenodd" d="M3.6001 12C3.6001 11.8409 3.65102 11.6883 3.74166 11.5758C3.83231 11.4632 3.95524 11.4 4.08343 11.4H20.5168C20.645 11.4 20.7679 11.4632 20.8585 11.5758C20.9492 11.6883 21.0001 11.8409 21.0001 12C21.0001 12.1592 20.9492 12.3118 20.8585 12.4243C20.7679 12.5368 20.645 12.6 20.5168 12.6H4.08343C3.95524 12.6 3.83231 12.5368 3.74166 12.4243C3.65102 12.3118 3.6001 12.1592 3.6001 12Z" fill="#262F2F"/>
<path id="Vector_3" fill-rule="evenodd" clip-rule="evenodd" d="M3.6001 16.8C3.6001 16.6409 3.65102 16.4883 3.74166 16.3757C3.83231 16.2632 3.95524 16.2 4.08343 16.2H20.5168C20.645 16.2 20.7679 16.2632 20.8585 16.3757C20.9492 16.4883 21.0001 16.6409 21.0001 16.8C21.0001 16.9591 20.9492 17.1118 20.8585 17.2243C20.7679 17.3368 20.645 17.4 20.5168 17.4H4.08343C3.95524 17.4 3.83231 17.3368 3.74166 17.2243C3.65102 17.1118 3.6001 16.9591 3.6001 16.8Z" fill="#262F2F"/>
</g>
</svg>
